# xmcd
#
# Track frame offsets: 
#        150
#        14005
#        29878
#        44778
#        57355
#        73355
#        91193
#        108695
#        123870
#        138033
#        153860
#
# Disc length: 2347 seconds
#
# Revision: 2
# Processed by: cddbd v1.5.1PL2 Copyright (c) Steve Scherf et al.
# Submitted via: ExactAudioCopy v0.95b3
#
DISCID=a009290b
DTITLE=Shelly Fairchild - Ride
DYEAR=2005
DGENRE=Country
TTITLE0=Kiss Me
TTITLE1=Ready To Fall
TTITLE2=Tiny Town
TTITLE3=You Don't Lie Here Anymore
TTITLE4=I Want To Love You
TTITLE5=Eight Crazy Hours (In The Story Of Love)
TTITLE6=Down Into Muddy Water
TTITLE7=Ride
TTITLE8=Time Machine
TTITLE9=I'm Going Back
TTITLE10=Fear Of Flying
EXTD=
EXTT0=
EXTT1=
EXTT2=
EXTT3=
EXTT4=
EXTT5=
EXTT6=
EXTT7=
EXTT8=
EXTT9=
EXTT10=
PLAYORDER=
